<svg height="6.04in" viewBox="0 0 761.89 434.89" width="10.58in" xmlns="http://www.w3.org/2000/svg"><g stroke="#000" stroke-miterlimit="10" transform="translate(92.5 48.24)"><path d="m331.38 86.55c26.75 4.79 52.54 9.42 78.33 14a9.9 9.9 0 0 0 3.94.32c18.89-4.87 38.48-5.13 57.53-8.87 8-1.58 15.44-5.15 23.6-6 16.44-1.76 32.06 2.4 47.68 6.5 22.83 6 44.6 15.11 66.76 23.07 10.32 3.7 21.34 5 31.47 9.43a153.15 153.15 0 0 1 23.69 12.61c4.53 3 5.67 6.77 3.33 10.48s-6.64 4.22-11.31 1.29a127.53 127.53 0 0 0 -39.21-16.68c-18.8-4.38-36.25-12.89-54.52-18.95-19.06-6.33-38.15-12.51-58.38-13.92a36.1 36.1 0 0 0 -14.53 1.83c-16.79 5.91-34.41 7-51.78 9.51-6.68 1-13.34 1.68-20 3.46-7.65 2.06-15.52-.47-23.16-1.86-35.11-6.39-70.05-13.82-105.48-18.22-28.65-3.55-57.44-3.36-86.24-.68-14.53 1.35-28.86 3.91-43.28 6-18.1 2.6-35.4-1.45-52.13-8.19a180.22 180.22 0 0 1 -19.45-8.84c-10.18-5.61-21.16-7.61-32.49-8.51-14.4-1.14-28.35 1.35-42.48 4.05-28.42 5.43-57 9.83-86.21 6.88-5.22-.52-8.27-3.1-8.11-7.46s3.21-6.85 8.69-6.73c11.64.24 23.27 1.36 34.93.08 19.18-2.15 38.23-4.75 57.14-8.62 25.46-5.22 50.58-4.6 74.51 7.28 13.85 6.87 28 13.06 43.4 15.52 11.22 1.79 22.16 0 33.18-1.79a435.67 435.67 0 0 1 114-3.84c7.44.74 7.43.89 7.11-6.3-.3-6.86-.09-13.65 2.1-20.25a31.45 31.45 0 0 1 4.68-9.33c4.66-6.09 10.34-11.07 18.5-9.19 9.08 2.08 16.3 7.06 17.39 17.41.76 7.09 1.62 14.19 1.14 21.38-.31 4.52-.72 8.92-4.34 13.13z"/><path d="m311.74 325.88a178.31 178.31 0 0 1 -2.56 37.7c-2.11 11.94-9.32 19.17-21.33 21.27s-24.27 1.4-36.17-.4c-19.34-2.93-26.28-11.29-26.55-31-.2-15 1.82-29.9 7.9-43.88s14.94-25.11 29.33-31.11c8.64-3.61 17.17-3.37 25.44 1.22 11.66 6.49 21.92 14.37 23.82 28.75.76 5.73.12 11.63.12 17.45z"/><path d="m183.92-47.14c9.15.32 16.9 4 24.93 6.5 4.57 1.43 9 3.29 13.47 5.08a10.59 10.59 0 0 0 7.26.07c26.34-7.48 53.2-12.45 80.58-12.24a263.28 263.28 0 0 1 91.09 17.36 9.65 9.65 0 0 0 7.12.21 201.75 201.75 0 0 1 25.81-7.28 29.64 29.64 0 0 1 19.89 2.44 163.3 163.3 0 0 1 18.46 10.84c3.11 2.12 5 4.82 2.64 8.36s-5.68 2.64-8.77.72c-4.1-2.53-8.26-5-12.22-7.68-7.63-5.24-15.74-5.34-24.18-2.72-7.29 2.26-14.63 4.36-21.87 6.77a9.73 9.73 0 0 1 -7.12-.06c-36.69-14.15-74.49-20.94-113.81-16.94a302.52 302.52 0 0 0 -58.43 11.78 10.61 10.61 0 0 1 -7.58-.42c-6.77-2.72-13.94-4.54-20.48-7.69-13.05-6.29-25.51-3.92-38 1.34-5.35 2.26-10.65 4.63-16 7-3.31 1.46-5.44-.07-7-2.81a4.37 4.37 0 0 1 1.9-6.4c13.59-6.95 27.39-12.97 42.31-14.23z"/><path d="m57.22 98.76c14-1 25.66 4.66 36.23 13.07 7.41 5.9 14.69 12 22 18a11.6 11.6 0 0 1 3.22 3.74c1.44 3.11 1.25 6.26-1.56 8.61-3.35 2.81-6.74 2.26-9.94-.42-6-5-12.35-9.66-17.87-15.15-13.8-13.61-30.3-14.76-48.18-12.09-32.37 4.83-64 12.54-95.33 22-9.17 2.77-18.57 4.8-27.89 7.08-4.51 1.11-8.44-.92-9.63-4.79-1.12-3.64 1.38-7.74 5.93-8.88 39.31-9.9 77.91-22.81 118.2-28.6 8.23-1.2 16.6-1.73 24.82-2.57z"/><path d="m635.66 208.26c-.06 4.35-5.8 8.73-11.23 5.34-8.56-5.34-17.18-10.66-26.11-15.36-22.56-11.88-42.33-28-63.67-41.66-13.18-8.47-27-15.51-42.51-18.92a24.47 24.47 0 0 0 -13.69.8c-8.8 3.08-16.94 7.52-25.26 11.63-3.29 1.62-6.46 1.58-9.11-1.25-2.15-2.3-2.4-5-1.2-7.87a7 7 0 0 1 3.5-3.39c8.05-4.3 16.3-8.16 24.72-11.7 10.41-4.39 20.76-3.67 31.21-.46a157.75 157.75 0 0 1 46.95 23.7c25.74 18.88 53.06 35.18 80.68 51.06 3 1.72 5.59 3.66 5.72 8.08z"/><path d="m54.77 149c18.83-1 36.6 2.81 53.11 12.06a22 22 0 0 1 6.41 5.48c2.4 3 2.43 6.2-.13 9.07-2.71 3-6.2 3.54-9.4 1.1-13.88-10.53-29.84-13.62-46.76-13.71-12.5-.08-25.08 0-37.28 2.37-10 2-19.71 5.78-29.89 7.17-21.43 2.94-41.48 10-60.68 19.72-4.67 2.38-8.78 1-10.57-3s-.08-7.58 4.7-10c19.45-9.93 39.78-17.07 61.5-20.36a147.17 147.17 0 0 0 26.88-6.48c9.09-3.21 19-2.65 28.65-3.31 4.45-.34 8.96-.11 13.46-.11z"/><path d="m479.39 171.19c14.12-.12 22.74 5.92 30.62 13.36a18.07 18.07 0 0 0 9 5c5.31 1.09 9.76 4.15 14.08 7.22 11.37 8.1 24.28 13.67 35.62 21.78 14.58 10.45 28 22.39 41.29 34.45 3.88 3.51 4.2 7.74 1.15 10.9s-6.81 2.94-10.61-.37c-12.93-11.22-25.31-23.17-39.58-32.67s-28.39-19.34-43.79-26.38c-9-4.1-16.43-9.35-23.91-15.2-5.92-4.62-12.74-4.39-19.49-2.69s-13.66 3.91-20.45 6c-5.6 1.71-9.06.5-10.71-3.93-1.55-4.14.6-7.73 6.08-9.61 10.86-3.76 21.76-7.32 30.7-7.86z"/><path d="m98.05 216c-.13 6.05-5.64 10-9.83 7.24-12.08-8-25.52-7.72-38.95-7.1-15.77.73-31.59.71-47.27 2.9-5.59.78-11 2.05-16 5.05-13.07 7.85-26.3 15.42-39.51 23-5.29 3.05-9.33 2.31-11.54-1.93-2.09-4-.52-7.58 4.49-10.49 12.46-7.24 25.05-14.29 37.32-21.85a59.06 59.06 0 0 1 27.3-8.51c21.23-1.51 42.47-3.53 63.77-2.32 9.68.55 19 2.95 27 9.08 2.03 1.57 3.22 3.36 3.22 4.93z"/><path d="m473.83 220a30.45 30.45 0 0 1 16.42 3.55c3.15 1.74 6.72 1.8 10.13 2.32a33.7 33.7 0 0 1 18.62 8.72c13.21 12.65 27.29 24.33 40.93 36.49 10.23 9.11 17.23 20.55 24.14 32.07 2.46 4.11 1.51 7.86-1.92 10-3.63 2.28-7.61 1.32-10.25-2.62-1.48-2.2-2.87-4.48-4.13-6.81-7.77-14.39-20.14-24.53-32.13-35-7.75-6.79-15.73-13.36-23-20.63-5.53-5.52-11.91-8.14-19.39-9-2.12-.24-4.49-.42-6.25-1.46-8.62-5.1-17.63-3.5-26.68-2.07a46.27 46.27 0 0 1 -4.92.71c-3.92.17-6.83-1.27-7.6-5.49s1.35-7.45 5.83-8.43a83.48 83.48 0 0 1 20.2-2.35z"/><path d="m479.18 277c12.38 1 22.74 7.2 32.73 14.21 11.22 7.88 18.67 19.27 27.22 29.62 6.33 7.68 12.44 15.56 18.65 23.35.41.52.85 1 1.23 1.56 3 4.24 2.8 8.68-.43 11.13s-7.66 1.66-10.84-2.28c-7.41-9.16-14.72-18.4-22-27.65-9.48-12-18.9-23.85-33.08-31.11-9.2-4.72-17.94-5.2-27.27-1.55a44.84 44.84 0 0 1 -4.62 1.78c-4.06 1.1-7.31 0-9-4.06s.11-7.23 3.77-9.05c7.33-3.65 15.27-5.3 23.64-5.95z"/><path d="m52.88 247.19a82.46 82.46 0 0 1 30.5 8.2 6.72 6.72 0 0 1 3.13 9.35c-1.89 3.52-4.91 5-8.79 3.52-5.73-2.16-11.4-4.48-17.42-5.74-3.57-.75-7.53-1.87-10.79-.17-14.64 7.68-31 12-44.5 21.83a169.67 169.67 0 0 0 -20.28 17.72c-2.74 2.76-6 3.68-9.5 1.62-2.92-1.7-3.7-4.53-3.18-7.76.35-2.13 2-3.44 3.37-4.81 8.22-8 16.56-16.1 26.44-21.94 13.83-8.17 28.87-14 43.63-20.27 2.51-1.08 5.51-1.17 7.39-1.55z"/><path d="m383.38 314.72c-8.52-.59-16.18-.43-23.66-2.44-4-1.07-5.34-2.69-4.05-7.08 2.48-8.44 4.51-17 9-24.68 6.95-11.87 17-12.52 25.38-1.67a60.44 60.44 0 0 1 11.69 27.15c1 5.73-.6 7.65-6.32 8-4.31.35-8.63.53-12.04.72z"/><path d="m184.49 290.06c-7.65-.67-18.15-2-28.23-5.66-4.22-1.52-6.22-3.35-3.8-8.43 3.64-7.63 6.6-15.55 11.61-22.49 7.67-10.61 18.92-10.73 25.8 1.4a66.64 66.64 0 0 1 7.8 24c1.41 10.02-.12 11.8-13.18 11.18z"/><path d="m185-23.11c13.12-.19 24.53 3.43 35.46 9 3.61 1.85 5 4.68 3.09 8.12s-4.95 3.16-8.22 1.41a65.24 65.24 0 0 0 -25.5-7.72c-13.83-1.15-25.89 2.93-36.08 12.37-1.83 1.69-3.46 3.59-5.26 5.32-2.24 2.15-4.83 2.43-7.18.44s-2.89-4.77-.81-7.49a54.07 54.07 0 0 1 12.4-11.47c9.84-6.82 20.7-10.39 32.1-9.98z"/><path d="m189.93 2c8.44-.11 16.53 1.81 24.5 4.22 3.54 1.07 6.78 3.29 5.23 7.57s-5.09 3.91-8.8 2.69a67.45 67.45 0 0 0 -23.53-3.48c-8.94.29-16.64 3-22.33 10.14-2.47 3.09-5.45 4.33-8.53 1.76s-2-5.85.33-8.79c8.56-10.62 20.2-13.96 33.13-14.11z"/><path d="m434.81-14c9.48 0 17.36 4.14 24.44 9.88a63.9 63.9 0 0 1 11.75 12.17c2 2.78 2.6 5.57-.35 7.9s-5.75 1.68-8.13-1.27c-4.08-5.06-8.47-9.8-14-13.35-9-5.78-18-6.4-26.83.24-3 2.29-6.15 3.3-8.71-.07-2.75-3.63-.67-6.45 2.48-8.78 5.73-4.26 12.08-6.78 19.35-6.72z"/><path d="m423.9 6.82c15 .85 25.82 9.2 35.17 20 2 2.3 1.34 5.14-1.1 7.05-2.64 2.08-5.29 1.6-7.55-.75-4.85-5.05-9.95-9.77-16.32-12.86-6.61-3.21-13.19-4-19.87.05-2.79 1.71-5.93 1.88-7.86-1.25s-.83-6 2.38-8c4.63-2.83 9.53-4.62 15.15-4.24z"/><path d="m195.26 20.1c6 .72 11.71 1.75 16.88 4.67 3.19 1.8 4.1 4.49 2.5 7.57s-4.27 3.5-7.26 2a28.13 28.13 0 0 0 -9.9-3.13c-8.37-.75-14.38 3.21-18.69 10.06-2 3.22-4.62 5.19-8.21 2.91-3.86-2.46-2.94-5.69-.71-9 6.32-9.49 15.85-15.18 25.39-15.08z"/><path d="m422.6 24.33c5.83.44 9.77 2.83 13.33 5.94a71 71 0 0 1 12.38 14.88c2.16 3.26 3.16 6.56-.74 9.05-3.64 2.32-6.18.21-8.2-2.92a57.28 57.28 0 0 0 -11.93-13.94c-2.26-1.82-4.48-3.19-7.44-.55-2.3 2.07-5.08 1.42-7-1s-1.69-4.94.41-7.19a13.39 13.39 0 0 1 9.19-4.27z"/><path d="m267.82 45.06c-4.79.25-8.65-.86-12.59-1.34-3.46-.43-4-2.44-3.07-5.23a27.43 27.43 0 0 1 7.9-12.49c4-3.41 8.61-2.56 11.24 2.05a25.64 25.64 0 0 1 3 14.41c-.3 4.81-4.92 1.4-6.48 2.6z"/><path d="m363.36 49.06c-9.76.38-10.07.09-8-9.37 1.06-4.8 1.68-10.51 7.82-11.36 5.75-.8 8.2 4.24 10.68 8.23 5.65 9.12 4.2 11.73-6.55 12.48-1.31.1-2.63.02-3.95.02z"/></g></svg>